<svg width="53" height="45" viewBox="0 0 53 45" fill="none" xmlns="http://www.w3.org/2000/svg">
<g opacity="0.4" filter="url(#filter0_dd_376_889)">
<rect x="10.5352" y="10" width="35.4158" height="27.7771" rx="13.8886" fill="#13161A"/>
</g>
<path d="M24.7766 25.6507L27.6061 28.4805C27.6811 28.5556 27.7828 28.5977 27.8889 28.5977C27.995 28.5977 28.0968 28.5556 28.1718 28.4805L31.0013 25.6507C31.0763 25.5757 31.1781 25.5335 31.2842 25.5335C31.3902 25.5335 31.492 25.5757 31.567 25.6507L32.8121 26.8955C32.8871 26.9706 32.9293 27.0724 32.9293 27.1785C32.9293 27.2846 32.8871 27.3864 32.8121 27.4615L28.1718 32.1036C28.0968 32.1787 27.995 32.2208 27.8889 32.2208C27.7828 32.2208 27.6811 32.1787 27.6061 32.1036L22.9665 27.4615C22.8915 27.3864 22.8494 27.2846 22.8494 27.1785C22.8494 27.0724 22.8915 26.9706 22.9665 26.8955L24.2116 25.6507C24.2867 25.5757 24.3884 25.5335 24.4945 25.5335C24.6006 25.5335 24.7023 25.5757 24.7774 25.6507H24.7766ZM34.4541 22.6608L34.5093 22.7072L35.7545 23.952C35.8207 24.0183 35.8617 24.1057 35.8702 24.199C35.8786 24.2923 35.8541 24.3857 35.8009 24.4628L35.7545 24.5188L34.5093 25.7636C34.4431 25.8299 34.3558 25.8709 34.2625 25.8793C34.1692 25.8878 34.0759 25.8633 33.9988 25.81L33.9436 25.7636L32.6985 24.518C32.6325 24.4517 32.5919 24.3644 32.5835 24.2713C32.5752 24.1781 32.5997 24.085 32.6529 24.0081L32.6985 23.952L33.9436 22.7072C34.0014 22.6494 34.0754 22.6107 34.1558 22.5963C34.2362 22.5818 34.3191 22.5923 34.3933 22.6264L34.4541 22.6608ZM21.835 22.7072L23.0801 23.952C23.1551 24.0271 23.1973 24.1289 23.1973 24.235C23.1973 24.3411 23.1551 24.4429 23.0801 24.518L21.835 25.7644C21.76 25.8394 21.6583 25.8816 21.5522 25.8816C21.4461 25.8816 21.3443 25.8394 21.2693 25.7644L20.0234 24.518C19.9484 24.4429 19.9062 24.3411 19.9062 24.235C19.9062 24.1289 19.9484 24.0271 20.0234 23.952L21.2685 22.7072C21.3435 22.6322 21.4453 22.59 21.5514 22.59C21.6575 22.59 21.76 22.6322 21.835 22.7072ZM28.1166 22.6608L28.1726 22.7072L29.4169 23.952C29.4832 24.0183 29.5241 24.1057 29.5326 24.199C29.5411 24.2923 29.5166 24.3857 29.4633 24.4628L29.4169 24.5188L28.1726 25.7636C28.1064 25.8299 28.019 25.8709 27.9257 25.8793C27.8324 25.8878 27.7391 25.8633 27.6621 25.81L27.6061 25.7636L26.3617 24.518C26.2957 24.4518 26.2549 24.3646 26.2464 24.2714C26.2379 24.1783 26.2623 24.0851 26.3153 24.0081L26.3617 23.952L27.6061 22.7072C27.6638 22.6494 27.7378 22.6107 27.8182 22.5963C27.8986 22.5818 27.9815 22.5923 28.0558 22.6264L28.1166 22.6608ZM28.1726 16.3672L32.8121 21.0086C32.8871 21.0836 32.9293 21.1854 32.9293 21.2915C32.9293 21.3977 32.8871 21.4995 32.8121 21.5745L31.567 22.8201C31.492 22.8951 31.3902 22.9373 31.2842 22.9373C31.1781 22.9373 31.0763 22.8951 31.0013 22.8201L28.1726 19.9903C28.1354 19.953 28.0913 19.9235 28.0427 19.9033C27.9941 19.8831 27.9419 19.8727 27.8893 19.8727C27.8367 19.8727 27.7846 19.8831 27.736 19.9033C27.6874 19.9235 27.6432 19.953 27.6061 19.9903L24.7774 22.8201C24.7023 22.8951 24.6006 22.9373 24.4945 22.9373C24.3884 22.9373 24.2867 22.8951 24.2116 22.8201L22.9665 21.5745C22.8915 21.4995 22.8494 21.3977 22.8494 21.2915C22.8494 21.1854 22.8915 21.0836 22.9665 21.0086L27.6061 16.3672C27.6811 16.2922 27.7828 16.25 27.8889 16.25C27.995 16.25 28.0976 16.2922 28.1726 16.3672Z" fill="#F3BA2F"/>
<defs>
<filter id="filter0_dd_376_889" x="0.81317" y="0.278013" width="52.0823" height="44.4436" filterUnits="userSpaceOnUse" color-interpolation-filters="sRGB">
<feFlood flood-opacity="0" result="BackgroundImageFix"/>
<feColorMatrix in="SourceAlpha" type="matrix" values="0 0 0 0 0 0 0 0 0 0 0 0 0 0 0 0 0 0 127 0" result="hardAlpha"/>
<feOffset dx="-2.77771" dy="-2.77771"/>
<feGaussianBlur stdDeviation="3.47214"/>
<feComposite in2="hardAlpha" operator="out"/>
<feColorMatrix type="matrix" values="0 0 0 0 1 0 0 0 0 1 0 0 0 0 1 0 0 0 0.08 0"/>
<feBlend mode="normal" in2="BackgroundImageFix" result="effect1_dropShadow_376_889"/>
<feColorMatrix in="SourceAlpha" type="matrix" values="0 0 0 0 0 0 0 0 0 0 0 0 0 0 0 0 0 0 127 0" result="hardAlpha"/>
<feOffset dx="2.77771" dy="2.77771"/>
<feGaussianBlur stdDeviation="2.08328"/>
<feComposite in2="hardAlpha" operator="out"/>
<feColorMatrix type="matrix" values="0 0 0 0 0 0 0 0 0 0 0 0 0 0 0 0 0 0 0.8 0"/>
<feBlend mode="normal" in2="effect1_dropShadow_376_889" result="effect2_dropShadow_376_889"/>
<feBlend mode="normal" in="SourceGraphic" in2="effect2_dropShadow_376_889" result="shape"/>
</filter>
</defs>
</svg>
