<svg width="12" height="15" viewBox="0 0 12 15" fill="none" xmlns="http://www.w3.org/2000/svg">
<path d="M10.5469 15C10.9365 15 11.25 14.6865 11.25 14.2969C11.25 13.9072 10.9365 13.5937 10.5469 13.5937L10.3125 13.5937L10.3125 13.0371C10.3125 11.8564 9.84375 10.7227 9.00879 9.8877L6.61816 7.5L9.00879 5.1123C9.84375 4.27734 10.3125 3.14355 10.3125 1.96289L10.3125 1.40625L10.5469 1.40625C10.9365 1.40625 11.25 1.09277 11.25 0.703125C11.25 0.313477 10.9365 -2.7405e-08 10.5469 -6.14691e-08L0.703126 -9.22037e-07C0.313478 -9.56101e-07 1.28394e-06 0.313476 1.24987e-06 0.703124C1.21581e-06 1.09277 0.313478 1.40625 0.703126 1.40625L0.937501 1.40625L0.937501 1.96289C0.937501 3.14355 1.40625 4.27734 2.24121 5.1123L4.63184 7.5L2.24414 9.88769C1.40625 10.7227 0.9375 11.8564 0.9375 13.0371L0.9375 13.5937L0.703125 13.5937C0.313477 13.5937 9.55333e-08 13.9072 6.14691e-08 14.2969C2.7405e-08 14.6865 0.313477 15 0.703125 15L10.5469 15ZM5.625 6.50684L3.23731 4.11914C2.66602 3.54492 2.34375 2.77148 2.34375 1.96289L2.34375 1.40625L8.90625 1.40625L8.90625 1.96289C8.90625 2.77148 8.58399 3.54492 8.0127 4.11621L5.625 6.50684ZM5.625 8.49609L8.0127 10.8838C8.58398 11.4551 8.90625 12.2285 8.90625 13.0371L8.90625 13.5937L2.34375 13.5937L2.34375 13.0371C2.34375 12.2285 2.66602 11.4551 3.23731 10.8838L5.625 8.49316L5.625 8.49609Z" fill="#81F78D"/>
<path d="M10.0255 13.3358C10.2241 13.6138 10.0254 14 9.68371 14L1.76944 14C1.43709 14 1.23636 13.6323 1.41608 13.3528L5.16494 7.5212C5.32553 7.2714 5.68753 7.26255 5.86014 7.50419L10.0255 13.3358Z" fill="#81F78D"/>
<rect x="3.50781" y="10.9485" width="3.02351" height="0.755877" rx="0.377939" transform="rotate(42.1977 3.50781 10.9485)" fill="#14171B"/>
<rect x="8" y="10.5117" width="4.09497" height="0.755877" rx="0.377939" transform="rotate(132.599 8 10.5117)" fill="#14171B"/>
</svg>
