<svg width="128" height="74" viewBox="0 0 128 74" fill="none" xmlns="http://www.w3.org/2000/svg">
<path d="M36.0775 65.2873C33.4287 67.5222 29.5547 67.5222 26.906 65.2873L8.49771 49.7558C6.36911 47.9599 5.48482 45.0866 6.23523 42.4046L13.8392 15.2272C14.6986 12.1557 17.498 10.0321 20.6875 10.0321L42.296 10.0321C45.4855 10.0321 48.2848 12.1557 49.1442 15.2273L56.7482 42.4046C57.4986 45.0866 56.6143 47.9599 54.4857 49.7558L36.0775 65.2873Z" fill="url(#paint0_linear_1122_43)" stroke="url(#paint1_linear_1122_43)" stroke-width="6.09535"/>
<path d="M37.7743 27.874V25.7787H25.207V27.874H21.7148V29.5328C21.7148 30.9296 22.1295 32.2737 22.883 33.3135C23.4648 34.1166 24.3745 34.671 25.1926 34.9377C25.43 36.2163 26.0743 37.4315 27.3834 38.4224C28.3438 39.1497 29.4984 39.6827 30.5325 39.9005V43.414H27.3023V45.3347H35.6834V43.414H32.4531V39.9005C33.4872 39.6822 34.6414 39.1497 35.6022 38.4224C36.9117 37.4315 37.5556 36.2163 37.793 34.9377C38.6111 34.671 39.5208 34.1166 40.1027 33.3135C40.8561 32.2737 41.2708 30.9296 41.2708 29.5328V27.874H37.7743ZM24.4387 32.1868C23.9725 31.546 23.6892 30.6852 23.6425 29.7947H25.207V32.7355C25.035 32.6857 24.643 32.4684 24.4387 32.1868ZM38.5469 32.1868C38.3461 32.4753 38.0405 32.7359 37.7786 32.7359C37.7786 31.7581 37.7786 30.7153 37.7765 29.7947H39.3435C39.2964 30.6852 39.0009 31.5364 38.5469 32.1868Z" fill="#F8F8F8"/>
<path d="M68.5892 65.2873C65.9404 67.5222 62.0664 67.5222 59.4177 65.2873L41.0094 49.7558C38.8808 47.9599 37.9965 45.0866 38.747 42.4046L46.351 15.2272C47.2103 12.1557 50.0097 10.0321 53.1992 10.0321L74.8077 10.0321C77.9972 10.0321 80.7965 12.1557 81.6559 15.2273L89.2599 42.4046C90.0103 45.0866 89.126 47.9599 86.9974 49.7558L68.5892 65.2873Z" fill="url(#paint2_linear_1122_43)" stroke="url(#paint3_linear_1122_43)" stroke-width="6.09535"/>
<path d="M70.286 27.874V25.7787H57.7187V27.874H54.2266V29.5328C54.2266 30.9296 54.6413 32.2737 55.3947 33.3135C55.9766 34.1166 56.8863 34.671 57.7043 34.9377C57.9418 36.2163 58.586 37.4315 59.8952 38.4224C60.8555 39.1497 62.0101 39.6827 63.0442 39.9005V43.414H59.814V45.3347H68.1951V43.414H64.9649V39.9005C65.999 39.6822 67.1531 39.1497 68.1139 38.4224C69.4234 37.4315 70.0673 36.2163 70.3048 34.9377C71.1228 34.671 72.0325 34.1166 72.6144 33.3135C73.3678 32.2737 73.7825 30.9296 73.7825 29.5328V27.874H70.286ZM56.9504 32.1868C56.4842 31.546 56.2009 30.6852 56.1542 29.7947H57.7187V32.7355C57.5467 32.6857 57.1547 32.4684 56.9504 32.1868ZM71.0586 32.1868C70.8578 32.4753 70.5523 32.7359 70.2904 32.7359C70.2904 31.7581 70.2904 30.7153 70.2882 29.7947H71.8553C71.8081 30.6852 71.5126 31.5364 71.0586 32.1868Z" fill="#F8F8F8"/>
<path d="M101.093 65.2873C98.4443 67.5222 94.5703 67.5222 91.9216 65.2873L73.5133 49.7558C71.3847 47.9599 70.5004 45.0866 71.2509 42.4046L78.8549 15.2272C79.7143 12.1557 82.5136 10.0321 85.7031 10.0321L107.312 10.0321C110.501 10.0321 113.3 12.1557 114.16 15.2273L121.764 42.4046C122.514 45.0866 121.63 47.9599 119.501 49.7558L101.093 65.2873Z" fill="url(#paint4_linear_1122_43)" stroke="url(#paint5_linear_1122_43)" stroke-width="6.09535"/>
<path d="M102.79 27.874V25.7787H90.2226V27.874H86.7305V29.5328C86.7305 30.9296 87.1452 32.2737 87.8986 33.3135C88.4805 34.1166 89.3902 34.671 90.2082 34.9377C90.4457 36.2163 91.09 37.4315 92.3991 38.4224C93.3594 39.1497 94.514 39.6827 95.5481 39.9005V43.414H92.3179V45.3347H100.699V43.414H97.4688V39.9005C98.5029 39.6822 99.657 39.1497 100.618 38.4224C101.927 37.4315 102.571 36.2163 102.809 34.9377C103.627 34.671 104.536 34.1166 105.118 33.3135C105.872 32.2737 106.286 30.9296 106.286 29.5328V27.874H102.79ZM89.4543 32.1868C88.9881 31.546 88.7048 30.6852 88.6581 29.7947H90.2226V32.7355C90.0506 32.6857 89.6586 32.4684 89.4543 32.1868ZM103.563 32.1868C103.362 32.4753 103.056 32.7359 102.794 32.7359C102.794 31.7581 102.794 30.7153 102.792 29.7947H104.359C104.312 30.6852 104.017 31.5364 103.563 32.1868Z" fill="#F8F8F8"/>
<defs>
<linearGradient id="paint0_linear_1122_43" x1="31.4917" y1="71.1122" x2="31.4917" y2="3.04744" gradientUnits="userSpaceOnUse">
<stop stop-color="#944C12"/>
<stop offset="1" stop-color="#CC7F3F"/>
</linearGradient>
<linearGradient id="paint1_linear_1122_43" x1="31.4917" y1="73.144" x2="31.4917" y2="-0.000231635" gradientUnits="userSpaceOnUse">
<stop stop-color="#B2723C"/>
<stop offset="1" stop-color="#E2A16A"/>
</linearGradient>
<linearGradient id="paint2_linear_1122_43" x1="64.0034" y1="71.1122" x2="64.0034" y2="3.04744" gradientUnits="userSpaceOnUse">
<stop stop-color="#647296"/>
<stop offset="1" stop-color="#839EBF"/>
</linearGradient>
<linearGradient id="paint3_linear_1122_43" x1="64.0034" y1="73.144" x2="64.0034" y2="-0.000231635" gradientUnits="userSpaceOnUse">
<stop stop-color="#8894B1"/>
<stop offset="1" stop-color="#A4BED9"/>
</linearGradient>
<linearGradient id="paint4_linear_1122_43" x1="96.5073" y1="71.1122" x2="96.5073" y2="3.04744" gradientUnits="userSpaceOnUse">
<stop stop-color="#3B1B70"/>
<stop offset="1" stop-color="#8439FF"/>
</linearGradient>
<linearGradient id="paint5_linear_1122_43" x1="96.5073" y1="73.144" x2="96.5073" y2="-0.000231635" gradientUnits="userSpaceOnUse">
<stop stop-color="#4C2987"/>
<stop offset="1" stop-color="#9D64FB"/>
</linearGradient>
</defs>
</svg>
