<svg width="28" height="35" viewBox="0 0 28 35" fill="none" xmlns="http://www.w3.org/2000/svg">
<path d="M26.332 15.8164C25.5737 14.1095 24.4713 12.5776 23.0938 11.3164L21.957 10.2734C21.9184 10.2389 21.872 10.2145 21.8217 10.2022C21.7715 10.1899 21.719 10.1901 21.6689 10.2029C21.6187 10.2156 21.5725 10.2404 21.5342 10.2752C21.4959 10.31 21.4667 10.3536 21.4492 10.4023L20.9414 11.8593C20.625 12.7734 20.043 13.707 19.2188 14.625C19.1641 14.6835 19.1016 14.6992 19.0586 14.7031C19.0156 14.707 18.9492 14.6992 18.8906 14.6445C18.8359 14.5976 18.8086 14.5273 18.8125 14.457C18.957 12.1054 18.2539 9.45308 16.7148 6.56636C15.4414 4.16792 13.6719 2.29683 11.4609 0.992141L9.84766 0.0429224C9.63672 -0.0820775 9.36719 0.0819848 9.37891 0.328078L9.46484 2.20308C9.52344 3.48433 9.375 4.61714 9.02344 5.55855C8.59375 6.71089 7.97656 7.7812 7.1875 8.74214C6.63837 9.40997 6.01598 10.014 5.33203 10.5429C3.68479 11.8092 2.34536 13.4317 1.41406 15.289C0.485054 17.1625 0.00113344 19.2252 0 21.3164C0 23.1601 0.363281 24.9453 1.08203 26.6289C1.77604 28.2498 2.77757 29.7209 4.03125 30.9609C5.29688 32.2109 6.76563 33.1953 8.40234 33.8789C10.0977 34.5898 11.8945 34.9492 13.75 34.9492C15.6055 34.9492 17.4023 34.5898 19.0977 33.8828C20.7303 33.2032 22.215 32.2121 23.4687 30.9648C24.7344 29.7148 25.7266 28.2539 26.418 26.6328C27.1356 24.9538 27.5038 23.1462 27.5 21.3203C27.5 19.414 27.1094 17.5625 26.332 15.8164ZM21.6016 29.0703C19.5039 31.1484 16.7188 32.289 13.75 32.289C10.7812 32.289 7.99609 31.1484 5.89844 29.0703C3.80859 26.996 2.65625 24.246 2.65625 21.3203C2.65625 19.621 3.03906 17.9921 3.79297 16.4765C4.52734 14.996 5.62109 13.6718 6.94922 12.6523C7.79624 12.0046 8.5645 11.26 9.23828 10.4335C10.2148 9.24214 10.9805 7.91401 11.5117 6.48823C11.7296 5.9001 11.888 5.29158 11.9844 4.67183C12.9258 5.53902 13.7148 6.58589 14.375 7.81245C15.6797 10.2578 16.2812 12.4335 16.1641 14.2851C16.1361 14.7212 16.2073 15.1579 16.3724 15.5625C16.5375 15.9671 16.7921 16.329 17.1172 16.621C17.3989 16.8755 17.7284 17.0715 18.0865 17.1976C18.4446 17.3236 18.8241 17.3773 19.2031 17.3554C19.9727 17.3164 20.6797 16.9765 21.1953 16.4023C21.7148 15.8203 22.1641 15.2265 22.5391 14.621C23.0859 15.3203 23.543 16.082 23.9062 16.9023C24.5273 18.3007 24.8438 19.789 24.8438 21.3203C24.8438 24.246 23.6914 27 21.6016 29.0703Z" fill="#F8F8F8"/>
<rect x="12.7715" y="23.8984" width="4.10351" height="1.58401" rx="0.792003" transform="rotate(135 12.7715 23.8984)" fill="white"/>
<rect x="18.3105" y="22.062" width="6.05667" height="1.56648" rx="0.783238" transform="rotate(135 18.3105 22.062)" fill="white"/>
<rect x="14.1504" y="26.3887" width="4.2281" height="1.58401" rx="0.792003" transform="rotate(-145.945 14.1504 26.3887)" fill="white"/>
<path d="M19.0087 20.2079L18.3766 23.8184L15.3981 20.84L19.0087 20.2079Z" fill="white"/>
</svg>
