<svg width="28" height="35" viewBox="0 0 28 35" fill="none" xmlns="http://www.w3.org/2000/svg">
<path d="M26.2407 15.857L26.2406 15.857C25.4879 14.1627 24.3936 12.6421 23.0262 11.3901L23.0261 11.39L21.8904 10.348C21.8903 10.3479 21.8902 10.3477 21.89 10.3476C21.8637 10.3243 21.8321 10.3077 21.798 10.2993C21.7636 10.2909 21.7277 10.2911 21.6935 10.2998C21.6592 10.3085 21.6276 10.3255 21.6014 10.3492C21.5753 10.3729 21.5555 10.4026 21.5435 10.4357C21.5434 10.4358 21.5434 10.436 21.5433 10.4361L21.0359 11.892L26.2407 15.857ZM26.2407 15.857C27.0123 17.5902 27.4 19.4279 27.4 21.3203V21.3205C27.4038 23.1328 27.0383 24.927 26.326 26.5935L26.326 26.5935C25.6397 28.2027 24.6549 29.6528 23.3985 30.8936L23.3982 30.8939C22.1537 32.132 20.6799 33.1158 19.0592 33.7904L19.0592 33.7905C17.3761 34.4924 15.5923 34.8492 13.75 34.8492C11.9077 34.8492 10.124 34.4924 8.44102 33.7866L8.44088 33.7866M26.2407 15.857L8.44088 33.7866M19.2932 14.6918L19.2919 14.6932C19.2153 14.7752 19.1264 14.7973 19.0676 14.8027C19.005 14.8084 18.9084 14.7969 18.8239 14.719C18.745 14.6505 18.7072 14.5499 18.7127 14.4514L18.7127 14.4508C18.8557 12.1235 18.1602 9.48981 16.6266 6.61341L16.6265 6.61325C15.3613 4.23028 13.6044 2.37312 11.4101 1.07826L9.79695 0.129111L9.79668 0.128952C9.65542 0.0452458 9.4708 0.15538 9.47879 0.323322L9.4788 0.3235L9.56474 2.19851C9.62378 3.48959 9.47452 4.63648 9.11712 5.59353C8.68353 6.75632 8.06077 7.83623 7.26478 8.8056L7.26474 8.80565C6.71086 9.47926 6.08308 10.0885 5.39321 10.622L5.39298 10.6222C3.75775 11.8792 2.42809 13.4899 1.50355 15.3337C0.581454 17.1933 0.101132 19.2407 0.1 21.3164L19.2932 14.6918ZM19.2932 14.6918C20.1238 13.7666 20.714 12.8218 21.0358 11.8922L19.2932 14.6918ZM8.44088 33.7866C6.81621 33.108 5.35818 32.1309 4.10152 30.8897C2.85708 29.6589 1.86291 28.1986 1.174 26.5896M8.44088 33.7866L1.174 26.5896M5.82806 29.1413L5.82799 29.1412C3.71942 27.0484 2.55625 24.273 2.55625 21.3203C2.55625 19.6057 2.94262 17.9615 3.70338 16.4321L5.82806 29.1413ZM5.82806 29.1413C7.94458 31.2381 10.7551 32.389 13.75 32.389C16.7449 32.389 19.5554 31.2381 21.6719 29.1413C23.7806 27.0523 24.9438 24.2729 24.9438 21.3203C24.9438 19.775 24.6244 18.2729 23.9976 16.8617C23.631 16.0339 23.1698 15.2651 22.6178 14.5594L22.5295 14.4465L22.454 14.5684C22.0825 15.1683 21.6369 15.7573 21.1209 16.3355C20.6229 16.8901 19.9407 17.2178 19.1981 17.2555L19.1974 17.2556C18.8316 17.2767 18.4653 17.2249 18.1197 17.1032C17.7741 16.9816 17.4561 16.7924 17.1842 16.5468L17.184 16.5467C16.8702 16.2647 16.6243 15.9154 16.465 15.5248C16.3056 15.1342 16.2368 14.7125 16.2639 14.2915L16.2639 14.2914C16.3827 12.4143 15.7726 10.2195 14.4632 7.76538L14.4631 7.76506C13.7983 6.53002 13.0027 5.47394 12.0521 4.59828L11.9144 4.47136L11.8856 4.65646C11.7902 5.26959 11.6335 5.87161 11.418 6.45346C10.8906 7.86871 10.1306 9.18719 9.16094 10.3702L9.16078 10.3704C8.49193 11.1907 7.7293 11.9299 6.88848 12.5729L6.88833 12.573M5.82806 29.1413L6.88833 12.573M6.88833 12.573C5.54833 13.6016 4.4447 14.9377 3.70343 16.432L6.88833 12.573ZM1.174 26.5896C0.460602 24.9185 0.100007 23.1468 0.1 21.3164L1.174 26.5896Z" fill="#F8F8F8" stroke="#121518" stroke-width="0.2"/>
<rect x="12.7715" y="23.8984" width="4.10351" height="1.58401" rx="0.792003" transform="rotate(135 12.7715 23.8984)" fill="white"/>
<rect x="18.3105" y="22.062" width="6.05667" height="1.56648" rx="0.783238" transform="rotate(135 18.3105 22.062)" fill="white"/>
<rect x="14.1504" y="26.3887" width="4.2281" height="1.58401" rx="0.792003" transform="rotate(-145.945 14.1504 26.3887)" fill="white"/>
<path d="M19.0087 20.2079L18.3766 23.8184L15.3981 20.84L19.0087 20.2079Z" fill="white"/>
</svg>
