<svg width="18" height="22" viewBox="0 0 18 22" fill="none" xmlns="http://www.w3.org/2000/svg">
<path d="M9.19655 0.276855C6.32588 0.276855 3.99039 2.61326 3.99039 5.48506V8.60999H2.94916C2.39686 8.60999 1.86718 8.82947 1.47664 9.22017C1.0861 9.61086 0.866699 10.1407 0.866699 10.6933V19.0264C0.866699 19.5789 1.0861 20.1088 1.47664 20.4995C1.86718 20.8902 2.39686 21.1097 2.94916 21.1097H15.4439C15.9962 21.1097 16.5259 20.8902 16.9165 20.4995C17.307 20.1088 17.5264 19.5789 17.5264 19.0264V10.6933C17.5264 10.1407 17.307 9.61086 16.9165 9.22017C16.5259 8.82947 15.9962 8.60999 15.4439 8.60999H14.4027V5.48506C14.4027 2.61326 12.0672 0.276855 9.19655 0.276855ZM6.07286 5.48506C6.07286 3.76219 7.47436 2.36014 9.19655 2.36014C10.9188 2.36014 12.3202 3.76219 12.3202 5.48506V8.60999H6.07286V5.48506ZM10.2378 16.6546V19.0264H8.15532V16.6546C7.79129 16.446 7.49899 16.132 7.31695 15.7539C7.13492 15.3758 7.0717 14.9514 7.13563 14.5367C7.19956 14.1219 7.38764 13.7363 7.67507 13.4306C7.9625 13.125 8.33578 12.9136 8.7457 12.8245C9.05017 12.7571 9.36588 12.759 9.66953 12.83C9.97318 12.9009 10.257 13.0392 10.5002 13.2345C10.7433 13.4299 10.9395 13.6773 11.0743 13.9586C11.2091 14.2399 11.279 14.5479 11.279 14.8598C11.2784 15.2241 11.1819 15.5819 10.9991 15.8969C10.8163 16.212 10.5537 16.4733 10.2378 16.6546Z" fill="#F8F8F8"/>
</svg>
