<svg width="38" height="30" viewBox="0 0 38 30" fill="none" xmlns="http://www.w3.org/2000/svg">
<path d="M28.0273 19.1094L28.0273 2.54782C28.0273 1.84423 28.5977 1.27386 29.3013 1.27386V1.27386C30.0049 1.27386 30.5753 1.84423 30.5753 2.54782L30.5753 19.1094L28.0273 19.1094Z" fill="white"/>
<path d="M10.1919 10.1917L10.1919 26.7532C10.1919 27.4568 9.62152 28.0272 8.91793 28.0272V28.0272C8.21434 28.0272 7.64396 27.4568 7.64396 26.7532L7.64396 10.1917L10.1919 10.1917Z" fill="white"/>
<path d="M29.333 27.4056L24.2782 20.2051L34.3879 20.2051L29.333 27.4056Z" stroke="white" stroke-width="2.54793"/>
<path d="M8.91776 2.15147L14.1237 9.23625L3.7118 9.23625L8.91776 2.15147Z" stroke="white" stroke-width="2.54793"/>
</svg>
