<svg width="53" height="45" viewBox="0 0 53 45" fill="none" xmlns="http://www.w3.org/2000/svg">
<g opacity="0.4" filter="url(#filter0_dd_448_186)">
<rect x="10.3818" y="10" width="35.4158" height="27.7771" rx="13.8886" fill="#13161A"/>
</g>
<path d="M34.585 17.1559L34.5854 17.1569C34.6826 17.4577 34.7326 17.7717 34.7336 18.0878M34.585 17.1559L34.7391 25.6226L34.5655 25.6225H34.7391C34.7393 25.1203 34.7395 24.6181 34.7398 24.1159C34.7409 22.1068 34.742 20.0975 34.7336 18.0878M34.585 17.1559C34.2186 16.0443 33.2285 15.3866 32.0016 15.3866H31.9828H31.964H31.9452H31.9264H31.9076H31.8888H31.87H31.8512H31.8324H31.8136H31.7948H31.7761H31.7573H31.7385H31.7197H31.7009H31.6821H31.6633H31.6445H31.6257H31.6069H31.5881H31.5693H31.5505H31.5317H31.5129H31.4941H31.4753H31.4565H31.4378H31.419H31.4002H31.3814H31.3626H31.3438H31.325H31.3062H31.2874H31.2686H31.2498H31.231H31.2122H31.1934H31.1746H31.1558H31.137H31.1182H31.0995H31.0807H31.0619H31.0431H31.0243H31.0055H30.9867H30.9679H30.9491H30.9303H30.9115H30.8927H30.8739H30.8551H30.8363H30.8175H30.7987H30.78H30.7612H30.7424H30.7236H30.7048H30.686H30.6672H30.6484H30.6296H30.6108H30.592H30.5732H30.5544H30.5356H30.5168H30.498H30.4792H30.4605H30.4417H30.4229H30.4041H30.3853H30.3665H30.3477H30.3289H30.3101H30.2913H30.2725H30.2537H30.2349H30.2161H30.1973H30.1785H30.1597H30.141H30.1222H30.1034H30.0846H30.0658H30.047H30.0282H30.0094H29.9906H29.9718H29.953H29.9342H29.9154H29.8966H29.8778H29.859H29.8402H29.8215H29.8027H29.7839H29.7651H29.7463H29.7275H29.7087H29.6899H29.6711H29.6523H29.6335H29.6147H29.5959H29.5771H29.5583H29.5395H29.5207H29.502H29.4832H29.4644H29.4456H29.4268H29.408H29.3892H29.3704H29.3516H29.3328H29.314H29.2952H29.2764H29.2576H29.2388H29.22H29.2013H29.1825H29.1637H29.1449H29.1261H29.1073H29.0885H29.0697H29.0509H29.0321H29.0133H28.9945H28.9757H28.9569H28.9381H28.9193H28.9006H28.8818H28.863H28.8442H28.8254H28.8066H28.7878H28.769H28.7502H28.7314H28.7126H28.6938H28.675H28.6562H28.6374H28.6186H28.5999H28.5811H28.5623H28.5435H28.5247H28.5059H28.4871H28.4683H28.4495H28.4307H28.4119H28.3931H28.3743H28.3555H28.3367H28.3179H28.2992H28.2804H28.2616H28.2428H28.224H28.2052H28.1864H28.1676H28.1488H28.13H28.1112H28.0924H28.0736H28.0548H28.036H28.0173H27.9985H27.9797H27.9609H27.9421H27.9233H27.9045H27.8857H27.8669H27.8481H27.8293H27.8105H27.7917H27.7729H27.7541H27.7353H27.7166H27.6978H27.679H27.6602H27.6414H27.6226H27.6038H27.585H27.5662H27.5474H27.5286H27.5098H27.491H27.4722H27.4534H27.4347H27.4159H27.3971H27.3783H27.3595H27.3407H27.3219H27.3031H27.2843H27.2655H27.2467H27.2279H27.2091H27.1903H27.1715H27.1528H27.134H27.1152H27.0964H27.0776H27.0588H27.04H27.0212H27.0024H26.9836H26.9648H26.946H26.9272H26.9084H26.8896H26.8709H26.8521H26.8333H26.8145H26.7957H26.7769H26.7581H26.7393H26.7205H26.7017H26.6829H26.6641H26.6453H26.6265H26.6077H26.589H26.5702H26.5514H26.5326H26.5138H26.495H26.4762H26.4574H26.4386H26.4198H26.401H26.3822H26.3634H26.3446H26.3258H26.3071H26.2883H26.2695H26.2507H26.2319H26.2131H26.1943H26.1755H26.1567H26.1379H26.1191H26.1003H26.0815H26.0627H26.044H26.0252H26.0064H25.9876H25.9688H25.95H25.9312H25.9124H25.8936H25.8748H25.856H25.8372H25.8184H25.7996H25.7809H25.7621H25.7433H25.7245H25.7057H25.6869H25.6681H25.6493H25.6305H25.6117H25.5929H25.5741H25.5553H25.5365H25.5177H25.499H25.4802H25.4614H25.4426H25.4238H25.405H25.3862H25.3674H25.3486H25.3298H25.311H25.2922H25.2734H25.2546H25.2359H25.2171H25.1983H25.1795H25.1607H25.1419H25.1231H25.1043H25.0855H25.0667H25.0479H25.0291H25.0103H24.9915H24.9728H24.954H24.9352H24.9164H24.8976H24.8788H24.86H24.8412H24.8224H24.8036H24.7848H24.766H24.7472H24.7285H24.7097H24.6909H24.6721H24.6533H24.6345H24.6157H24.5969H24.5781H24.5593H24.5405H24.5217H24.5029H24.4841H24.4654H24.4466H24.4278H24.409H24.3902H24.3714H24.3526H24.3338H24.315H24.2962H24.2774H24.2586H24.2398H24.221H24.2023H24.1835H24.1647H24.1459H24.1271H24.1083H24.0895H24.0707H24.0519H24.0331H24.0143H23.9955H23.9767H23.958H23.9392H23.9204H23.9016H23.8828H23.864H23.8452H23.8264H23.8076H23.7888H23.77H23.7512H23.7324H23.7136H23.6949H23.6761H23.6573H23.6385H23.6197H23.6009H23.5821H23.5633H23.5445H23.5257H23.5069H23.4881H23.4693H23.4506H23.4318H23.413H23.3942H23.3754H23.3566H23.3378H23.319H23.3002H23.2814H23.2626H23.2438H23.225H23.2063H23.1875H23.1687H23.1499H23.1311H23.1123H23.0935H23.0747H23.0559H23.0371H23.0183H22.9995H22.9807H22.962H22.9432H22.9244H22.9056H22.8868H22.868H22.8492H22.8304H22.8116H22.7928H22.774H22.7552H22.7364H22.7177H22.6989H22.6801H22.6613H22.6425H22.6237H22.6049H22.5861H22.5673H22.5485H22.5297H22.5109H22.4921H22.4734H22.4546H22.4358H22.417H22.3982H22.3794C22.1816 15.3866 21.9827 15.3854 21.7832 15.3841C21.2854 15.381 20.7836 15.3778 20.284 15.3941C18.6052 15.4487 17.395 17.0832 17.8067 18.7098C17.9349 19.246 18.2374 19.7246 18.6666 20.0705C19.0961 20.4166 19.6283 20.6104 20.1797 20.6214C20.5344 20.6299 20.8935 20.6271 21.2592 20.6243C21.3881 20.6233 21.5179 20.6223 21.6486 20.6218L21.6513 20.7909C21.6476 23.7222 21.6476 26.6536 21.6513 29.5849L34.585 17.1559ZM34.7336 18.0878L34.56 18.0884L34.7336 18.0877C34.7336 18.0877 34.7336 18.0878 34.7336 18.0878ZM22.6336 16.7114H22.633H22.6144H22.5957H22.5771H22.5584H22.5397H22.5211H22.4312L29.4252 32.2177C31.0413 32.2225 32.6574 32.2273 34.273 32.2C36.5413 32.1619 38.436 30.21 38.4789 27.9445L38.6525 27.9478C38.6525 27.9478 38.6525 27.9478 38.6525 27.9478C38.6571 27.7105 38.6167 27.4972 38.4735 27.3469C38.3291 27.1954 38.1187 27.148 37.8827 27.148H28.3072C28.0753 27.148 27.8697 27.1908 27.724 27.333C27.5789 27.4745 27.5301 27.6786 27.5203 27.9076L27.5203 27.9076C27.4486 29.5852 26.2265 30.8806 24.5514 31.0559C24.235 31.0884 23.9564 31.0566 23.7243 30.9535C23.496 30.8521 23.3013 30.6767 23.1563 30.4003C23.0421 30.1569 22.9853 29.8905 22.9903 29.6217L22.9904 29.6217L22.9903 29.6182C22.9854 25.7979 22.983 21.9776 22.983 18.1573M22.6336 16.7114C22.8911 17.1623 22.9836 17.6517 22.983 18.1573M22.6336 16.7114H22.6517H22.6704H22.689H22.7077H22.7263H22.745H22.7636H22.7823H22.801H22.8196H22.8383H22.8569H22.8756H22.8942H22.9129H22.9316H22.9502H22.9689H22.9875H23.0062H23.0249H23.0435H23.0622H23.0808H23.0995H23.1181H23.1368H23.1555H23.1741H23.1928H23.2114H23.2301H23.2487H23.2674H23.2861H23.3047H23.3234H23.342H23.3607H23.3794H23.398H23.4167H23.4353H23.454H23.4726H23.4913H23.51H23.5286H23.5473H23.5659H23.5846H23.6032H23.6219H23.6406H23.6592H23.6779H23.6965H23.7152H23.7339H23.7525H23.7712H23.7898H23.8085H23.8271H23.8458H23.8645H23.8831H23.9018H23.9204H23.9391H23.9578H23.9764H23.9951H24.0137H24.0324H24.051H24.0697H24.0884H24.107H24.1257H24.1443H24.163H24.1816H24.2003H24.219H24.2376H24.2563H24.2749H24.2936H24.3123H24.3309H24.3496H24.3682H24.3869H24.4055H24.4242H24.4429H24.4615H24.4802H24.4988H24.5175H24.5361H24.5548H24.5735H24.5921H24.6108H24.6294H24.6481H24.6668H24.6854H24.7041H24.7227H24.7414H24.76H24.7787H24.7974H24.816H24.8347H24.8533H24.872H24.8906H24.9093H24.928H24.9466H24.9653H24.9839H25.0026H25.0213H25.0399H25.0586H25.0772H25.0959H25.1145H25.1332H25.1519H25.1705H25.1892H25.2078H25.2265H25.2451H25.2638H25.2825H25.3011H25.3198H25.3384H25.3571H25.3758H25.3944H25.4131H25.4317H25.4504H25.469H25.4877H25.5064H25.525H25.5437H25.5623H25.581H25.5997H25.6183H25.637H25.6556H25.6743H25.6929H25.7116H25.7303H25.7489H25.7676H25.7862H25.8049H25.8235H25.8422H25.8609H25.8795H25.8982H25.9168H25.9355H25.9542H25.9728H25.9915H26.0101H26.0288H26.0474H26.0661H26.0848H26.1034H26.1221H26.1407H26.1594H26.178H26.1967H26.2154H26.234H26.2527H26.2713H26.29H26.3087H26.3273H26.346H26.3646H26.3833H26.4019H26.4206H26.4393H26.4579H26.4766H26.4952H26.5139H26.5325H26.5512H26.5699H26.5885H26.6072H26.6258H26.6445H26.6632H26.6818H26.7005H26.7191H26.7378H26.7564H26.7751H26.7938H26.8124H26.8311H26.8497H26.8684H26.887H26.9057H26.9244H26.943H26.9617H26.9803H26.999H27.0177H27.0363H27.055H27.0736H27.0923H27.1109H27.1296H27.1483H27.1669H27.1856H27.2042H27.2229H27.2416H27.2602H27.2789H27.2975H27.3162H27.3348H27.3535H27.3722H27.3908H27.4095H27.4281H27.4468H27.4654H27.4841H27.5028H27.5214H27.5401H27.5587H27.5774H27.5961H27.6147H27.6334H27.652H27.6707H27.6893H27.708H27.7267H27.7453H27.764H27.7826H27.8013H27.8199H27.8386H27.8573H27.8759H27.8946H27.9132H27.9319H27.9506H27.9692H27.9879H28.0065H28.0252H28.0438H28.0625H28.0812H28.0998H28.1185H28.1371H28.1558H28.1744H28.1931H28.2118H28.2304H28.2491H28.2677H28.2864H28.3051H28.3237H28.3424H28.361H28.3797H28.3983H28.417H28.4357H28.4543H28.473H28.4916H28.5103H28.5289H28.5476H28.5663H28.5849H28.6036H28.6222H28.6409H28.6596H28.6782H28.6969H28.7155H28.7342H28.7528H28.7715H28.7902H28.8088H28.8275H28.8461H28.8648H28.8835H28.9021H28.9208H28.9394H28.9581H28.9767H28.9954H29.0141H29.0327H29.0514H29.07H29.0887H29.1073H29.126H29.1447H29.1633H29.182H29.2006H29.2193H29.238H29.2566H29.2753H29.2939H29.3126H29.3312H29.3499H29.3686H29.3872H29.4059H29.4245H29.4432H29.4618H29.4805H29.4992H29.5178H29.5365H29.5551H29.5738H29.5925H29.6111H29.6298H29.6484H29.6671H29.6857H29.7044H29.7231H29.7417H29.7604H29.779H29.7977H29.8163H29.835H29.8537H29.8723H29.891H29.9096H29.9283H29.947H29.9656H29.9843H30.0029H30.0216H30.0402H30.0589H30.0776H30.0962H30.1149H30.1335H30.1522H30.1709H30.1895H30.2082H30.2268H30.2455H30.2641H30.2828H30.3015H30.3201H30.3388H30.3574H30.3761H30.3947H30.4134H30.4321H30.4507H30.4694H30.488H30.5067H30.5254H30.544H30.5627H30.5813H30.6H30.6186H30.6373H30.656H30.6746H30.6933H30.7119H30.7306H30.7492H30.7679H30.7866H30.8052H30.8239H30.8425H30.8612H30.8799H30.8985H30.9172H30.9358H30.9545H30.9731H30.9918H31.0105H31.0291H31.0478H31.0664H31.0851H31.1037H31.1224H31.1411H31.1597H31.1784H31.197H31.2157H31.2344H31.253H31.2717H31.2903H31.309H31.3276H31.3463H31.365H31.3836H31.4023H31.4209H31.4396H31.4582H31.4769H31.4956H31.5142H31.5329H31.5515H31.5702H31.5889H31.6075H31.6262H31.6448H31.6635H31.6821H31.7008H31.7195H31.7381H31.7568H31.7754H31.7941H31.8128H31.8314H31.8501H31.8687H31.8874H31.906H31.9247H31.9434H31.962H31.9807H31.9993H32.018H32.0366H32.0553H32.074V16.7114L32.0769 16.7113C32.1579 16.7099 32.2388 16.7159 32.3187 16.7291L22.6336 16.7114ZM22.983 18.1573L22.8094 18.1571H22.983C22.983 18.1572 22.983 18.1572 22.983 18.1573ZM29.5252 31.0635C28.8467 31.063 28.1681 31.0625 27.4895 31.0624C28.2105 30.3349 28.6422 29.4839 28.8063 28.4856H37.2545C37.1106 29.1838 36.7356 29.8154 36.1872 30.2765L36.1872 30.2765L36.1839 30.2794C35.6131 30.7848 34.8771 31.0633 34.1149 31.0624L34.1143 31.0624C32.5847 31.0656 31.0551 31.0645 29.5252 31.0635ZM20.8595 16.8178C21.3515 17.0319 21.6184 17.4106 21.6385 17.9481C21.6511 18.2902 21.6481 18.6304 21.6449 18.9821C21.644 19.0862 21.6431 19.1913 21.6426 19.2977C21.518 19.2983 21.3955 19.2993 21.2744 19.3004C20.8846 19.3037 20.5105 19.3069 20.1378 19.2931C19.6744 19.2759 19.2662 18.9387 19.1155 18.4736C19.0372 18.2199 19.0344 17.949 19.1073 17.6937C19.1802 17.4384 19.3257 17.2099 19.5261 17.0358C19.7339 16.8596 19.9469 16.755 20.1635 16.718C20.3796 16.6812 20.6109 16.7097 20.8595 16.8178Z" fill="#3DE54E" stroke="#3DE54E" stroke-width="0.347214"/>
<defs>
<filter id="filter0_dd_448_186" x="0.659849" y="0.278013" width="52.0823" height="44.4436" filterUnits="userSpaceOnUse" color-interpolation-filters="sRGB">
<feFlood flood-opacity="0" result="BackgroundImageFix"/>
<feColorMatrix in="SourceAlpha" type="matrix" values="0 0 0 0 0 0 0 0 0 0 0 0 0 0 0 0 0 0 127 0" result="hardAlpha"/>
<feOffset dx="-2.77771" dy="-2.77771"/>
<feGaussianBlur stdDeviation="3.47214"/>
<feComposite in2="hardAlpha" operator="out"/>
<feColorMatrix type="matrix" values="0 0 0 0 1 0 0 0 0 1 0 0 0 0 1 0 0 0 0.08 0"/>
<feBlend mode="normal" in2="BackgroundImageFix" result="effect1_dropShadow_448_186"/>
<feColorMatrix in="SourceAlpha" type="matrix" values="0 0 0 0 0 0 0 0 0 0 0 0 0 0 0 0 0 0 127 0" result="hardAlpha"/>
<feOffset dx="2.77771" dy="2.77771"/>
<feGaussianBlur stdDeviation="2.08328"/>
<feComposite in2="hardAlpha" operator="out"/>
<feColorMatrix type="matrix" values="0 0 0 0 0 0 0 0 0 0 0 0 0 0 0 0 0 0 0.8 0"/>
<feBlend mode="normal" in2="effect1_dropShadow_448_186" result="effect2_dropShadow_448_186"/>
<feBlend mode="normal" in="SourceGraphic" in2="effect2_dropShadow_448_186" result="shape"/>
</filter>
</defs>
</svg>
