<svg width="30" height="24" viewBox="0 0 30 24" fill="none" xmlns="http://www.w3.org/2000/svg">
<path d="M5.64711 7.04553C4.82973 7.04553 4.05654 7.06409 3.29042 7.04553C2.55128 7.03091 1.8379 6.77135 1.26218 6.30757C0.686458 5.84379 0.280963 5.20204 0.109299 4.48296C-0.446514 2.2924 1.18647 0.0912427 3.4433 0.0179002C4.44623 -0.0147947 5.45005 0.00729684 6.45387 0.00729684C11.0742 0.00729684 15.6947 0.00729684 20.3156 0.00729684C21.9875 0.00729684 23.3094 0.896245 23.7998 2.38342C23.9319 2.79197 23.9999 3.21854 24.0013 3.64791C24.0163 7.26467 24.0101 10.8806 24.0092 14.4973C24.0092 14.5936 23.9969 14.6891 23.9889 14.8039H22.5875V14.4036C22.5875 10.8208 22.5875 7.23728 22.5875 3.65322C22.5875 2.47974 21.9079 1.63939 20.8149 1.4441C20.6844 1.42244 20.5522 1.41268 20.4199 1.41494C15.8326 1.41494 11.2453 1.41494 6.65799 1.41494H6.3929C6.44326 1.51126 6.47243 1.57842 6.51219 1.63939C6.92485 2.2818 7.07419 2.99225 7.0733 3.74688C7.0733 9.24846 7.07684 14.75 7.08391 20.2516C7.07592 20.6789 7.16664 21.1022 7.349 21.4887C7.81645 22.3838 8.63736 22.6701 9.60848 22.5703C12.1445 22.3052 14.0011 20.3391 14.1098 17.7986C14.1363 17.1801 14.3704 16.9441 14.9934 16.9441H28.788C29.4172 16.9441 29.6593 17.2021 29.6469 17.841C29.585 21.1034 26.8555 23.9143 23.5878 23.9691C20.2476 24.0256 16.9056 23.9868 13.5646 23.9894C12.1198 23.9894 10.675 24 9.2347 23.9894C7.4789 23.9717 6.09865 22.8654 5.739 21.1909C5.67651 20.8664 5.64838 20.5361 5.65506 20.2057C5.64975 15.983 5.64975 11.7604 5.65506 7.53772L5.64711 7.04553ZM13.1934 22.5694C13.3348 22.5765 13.3878 22.5809 13.4417 22.5809C16.7475 22.5809 20.054 22.588 23.3598 22.5809C24.5189 22.5823 25.6384 22.1589 26.5064 21.3906C27.4176 20.6246 28.0136 19.549 28.1801 18.3703H15.4971C15.27 20.0431 14.5224 21.4207 13.1934 22.5694ZM5.6418 5.63877C5.6418 4.88414 5.66301 4.15954 5.6365 3.43672C5.6038 2.56368 5.15845 1.93453 4.36405 1.58902C3.56965 1.24352 2.83446 1.38755 2.18056 1.94248C1.85464 2.22498 1.61801 2.59625 1.49954 3.01097C1.38107 3.42569 1.38589 3.86593 1.51341 4.27795C1.75818 5.03524 2.42887 5.60342 3.21531 5.63258C4.00176 5.66174 4.79969 5.63877 5.6418 5.63877Z" fill="#3DE54E"/>
</svg>
