<svg width="12" height="14" viewBox="0 0 12 14" fill="none" xmlns="http://www.w3.org/2000/svg">
<path d="M5.81958 0.0927734C3.90504 0.0927734 2.34744 1.65037 2.34744 3.56491V5.64819H1.65302C1.28467 5.64819 0.931407 5.79452 0.670946 6.05498C0.410485 6.31544 0.26416 6.6687 0.26416 7.03705V12.5925C0.26416 12.9608 0.410485 13.3141 0.670946 13.5745C0.931407 13.835 1.28467 13.9813 1.65302 13.9813H9.98615C10.3545 13.9813 10.7078 13.835 10.9682 13.5745C11.2287 13.3141 11.375 12.9608 11.375 12.5925V7.03705C11.375 6.6687 11.2287 6.31544 10.9682 6.05498C10.7078 5.79452 10.3545 5.64819 9.98615 5.64819H9.29172H8.59729V4.78016V3.91213L9.29172 3.56491C9.29172 1.65037 7.73412 0.0927734 5.81958 0.0927734ZM3.7363 3.56491C3.7363 2.41633 4.671 1.48163 5.81958 1.48163C6.96816 1.48163 7.90286 2.41633 7.90286 3.56491L8.59729 3.91213V4.78016V5.64819H7.90286H7.38204H6.86122H5.81958H3.7363V3.56491ZM6.51401 11.0113V12.5925H5.12515V11.0113C4.88237 10.8722 4.68743 10.6629 4.56602 10.4108C4.44461 10.1588 4.40245 9.87583 4.44509 9.59933C4.48773 9.32282 4.61316 9.06573 4.80486 8.86196C4.99655 8.65818 5.24551 8.51728 5.51889 8.45785C5.72196 8.41295 5.93251 8.4142 6.13502 8.46152C6.33753 8.50883 6.52685 8.601 6.68899 8.73123C6.85114 8.86145 6.98199 9.02641 7.07189 9.21394C7.16179 9.40147 7.20846 9.60679 7.20844 9.81476C7.20804 10.0576 7.14364 10.2961 7.02172 10.5062C6.89981 10.7162 6.72469 10.8904 6.51401 11.0113Z" fill="#F8F8F8"/>
</svg>
