<svg width="12" height="15" viewBox="0 0 12 15" fill="none" xmlns="http://www.w3.org/2000/svg">
<path d="M0.703125 0C0.313477 0 0 0.313477 0 0.703125C0 1.09277 0.313477 1.40625 0.703125 1.40625H0.9375V1.96289C0.9375 3.14355 1.40625 4.27734 2.24121 5.1123L4.63184 7.5L2.24121 9.8877C1.40625 10.7227 0.9375 11.8564 0.9375 13.0371V13.5938H0.703125C0.313477 13.5938 0 13.9072 0 14.2969C0 14.6865 0.313477 15 0.703125 15H10.5469C10.9365 15 11.25 14.6865 11.25 14.2969C11.25 13.9072 10.9365 13.5938 10.5469 13.5938H10.3125V13.0371C10.3125 11.8564 9.84375 10.7227 9.00879 9.8877L6.61816 7.5L9.00586 5.1123C9.84375 4.27734 10.3125 3.14355 10.3125 1.96289V1.40625H10.5469C10.9365 1.40625 11.25 1.09277 11.25 0.703125C11.25 0.313477 10.9365 0 10.5469 0H0.703125ZM5.625 8.49316L8.0127 10.8809C8.58398 11.4551 8.90625 12.2285 8.90625 13.0371V13.5938H2.34375V13.0371C2.34375 12.2285 2.66602 11.4551 3.2373 10.8838L5.625 8.49316ZM5.625 6.50391L3.2373 4.11621C2.66602 3.54492 2.34375 2.77148 2.34375 1.96289V1.40625H8.90625V1.96289C8.90625 2.77148 8.58398 3.54492 8.0127 4.11621L5.625 6.50684V6.50391Z" fill="#7D8794"/>
<path d="M3.41005 2.99205C3.24721 2.79666 3.38616 2.5 3.64051 2.5H7.35949C7.61384 2.5 7.75279 2.79666 7.58995 2.99206L5.73047 5.22344C5.61053 5.36737 5.38947 5.36737 5.26953 5.22344L3.41005 2.99205Z" fill="#7D8794"/>
</svg>
