<svg width="53" height="55" viewBox="0 0 53 55" fill="none" xmlns="http://www.w3.org/2000/svg">
<g filter="url(#filter0_d_376_703)">
<path d="M31.5407 46.8116C28.1332 49.2872 23.5192 49.2872 20.1118 46.8116L7.43462 37.6011C4.02719 35.1254 2.60138 30.7373 3.90291 26.7316L8.74516 11.8287C10.0467 7.82299 13.7795 5.11094 17.9913 5.11094L33.6612 5.11094C37.873 5.11094 41.6058 7.82299 42.9073 11.8287L47.7496 26.7316C49.0511 30.7372 47.6253 35.1254 44.2179 37.6011L31.5407 46.8116Z" fill="url(#paint0_linear_376_703)"/>
<path d="M30.2967 45.0994C27.631 47.0361 24.0215 47.0361 21.3558 45.0994L8.67861 35.8889C6.01294 33.9522 4.89752 30.5193 5.91572 27.3856L10.758 12.4827C11.7762 9.349 14.6964 7.22733 17.9913 7.22733L33.6612 7.22733C36.9561 7.22733 39.8763 9.34899 40.8945 12.4827L45.7368 27.3856C46.755 30.5193 45.6395 33.9522 42.9739 35.8889L30.2967 45.0994Z" stroke="url(#paint1_linear_376_703)" stroke-width="4.23278"/>
</g>
<path d="M25.9227 31.6264C25.1023 31.6264 24.371 31.4755 23.7287 31.1737C23.0902 30.8718 22.5833 30.4559 22.208 29.9258C21.8327 29.3957 21.6373 28.7882 21.6218 28.1033H24.0595C24.0866 28.5637 24.2801 28.9371 24.6399 29.2235C24.9998 29.5098 25.4274 29.653 25.9227 29.653C26.3173 29.653 26.6656 29.5659 26.9674 29.3918C27.2731 29.2138 27.5111 28.9681 27.6813 28.6547C27.8554 28.3374 27.9425 27.9736 27.9425 27.5635C27.9425 27.1456 27.8535 26.778 27.6755 26.4607C27.5014 26.1434 27.2595 25.8958 26.95 25.7178C26.6404 25.5398 26.2864 25.4488 25.8878 25.445C25.5396 25.445 25.201 25.5166 24.8721 25.6597C24.5471 25.8029 24.2936 25.9983 24.1118 26.2459L21.8772 25.8455L22.4402 19.577H29.707V21.6317H24.5123L24.2046 24.6092H24.2743C24.4832 24.3151 24.7986 24.0713 25.2204 23.8779C25.6421 23.6844 26.1142 23.5877 26.6366 23.5877C27.3524 23.5877 27.9909 23.756 28.5519 24.0926C29.113 24.4293 29.556 24.8916 29.8811 25.4798C30.2061 26.0641 30.3667 26.7374 30.3628 27.4996C30.3667 28.3006 30.181 29.0126 29.8056 29.6356C29.4342 30.2547 28.9137 30.7422 28.2443 31.0982C27.5788 31.4503 26.8049 31.6264 25.9227 31.6264Z" fill="white"/>
<defs>
<filter id="filter0_d_376_703" x="2.01534" y="5.11084" width="50.4435" height="49.2013" filterUnits="userSpaceOnUse" color-interpolation-filters="sRGB">
<feFlood flood-opacity="0" result="BackgroundImageFix"/>
<feColorMatrix in="SourceAlpha" type="matrix" values="0 0 0 0 0 0 0 0 0 0 0 0 0 0 0 0 0 0 127 0" result="hardAlpha"/>
<feOffset dx="1.41093" dy="2.82185"/>
<feGaussianBlur stdDeviation="1.41093"/>
<feComposite in2="hardAlpha" operator="out"/>
<feColorMatrix type="matrix" values="0 0 0 0 0 0 0 0 0 0 0 0 0 0 0 0 0 0 0.25 0"/>
<feBlend mode="normal" in2="BackgroundImageFix" result="effect1_dropShadow_376_703"/>
<feBlend mode="normal" in="SourceGraphic" in2="effect1_dropShadow_376_703" result="shape"/>
</filter>
<linearGradient id="paint0_linear_376_703" x1="25.8262" y1="49.5552" x2="25.8262" y2="2.38239" gradientUnits="userSpaceOnUse">
<stop stop-color="#DF48BE"/>
<stop offset="1" stop-color="#9C39FF"/>
</linearGradient>
<linearGradient id="paint1_linear_376_703" x1="25.8262" y1="50.9634" x2="25.8262" y2="0.27017" gradientUnits="userSpaceOnUse">
<stop stop-color="#2E112B"/>
<stop offset="1" stop-color="#983DC3"/>
</linearGradient>
</defs>
</svg>
