<svg width="53" height="55" viewBox="0 0 53 55" fill="none" xmlns="http://www.w3.org/2000/svg">
<g filter="url(#filter0_d_376_709)">
<path d="M31.5402 46.8111C28.1328 49.2868 23.5187 49.2868 20.1113 46.8111L7.43413 37.6006C4.0267 35.1249 2.6009 30.7368 3.90242 26.7311L8.74467 11.8282C10.0462 7.82251 13.779 5.11045 17.9908 5.11045L33.6607 5.11045C37.8725 5.11045 41.6053 7.8225 42.9068 11.8282L47.7491 26.7311C49.0506 30.7368 47.6248 35.125 44.2174 37.6006L31.5402 46.8111Z" fill="url(#paint0_linear_376_709)"/>
<path d="M30.2962 45.0989C27.6305 47.0356 24.021 47.0356 21.3553 45.0989L8.67812 35.8884C6.01245 33.9517 4.89704 30.5188 5.91523 27.3851L10.7575 12.4822C11.7757 9.34851 14.6959 7.22684 17.9908 7.22684L33.6607 7.22684C36.9556 7.22684 39.8758 9.3485 40.894 12.4822L45.7363 27.3851C46.7545 30.5188 45.6391 33.9517 42.9734 35.8884L30.2962 45.0989Z" stroke="url(#paint1_linear_376_709)" stroke-width="4.23278"/>
</g>
<path d="M22.5857 19.576V31.4629H20.0725V21.9615H20.0028L17.2807 23.6679V21.4391L20.2234 19.576H22.5857ZM29.7523 31.6254C28.932 31.6254 28.2007 31.4745 27.5584 31.1727C26.9199 30.8709 26.413 30.4549 26.0377 29.9248C25.6623 29.3947 25.4669 28.7872 25.4515 28.1023H27.8892C27.9163 28.5628 28.1097 28.9362 28.4696 29.2225C28.8295 29.5088 29.257 29.652 29.7523 29.652C30.147 29.652 30.4952 29.5649 30.7971 29.3908C31.1027 29.2128 31.3407 28.9671 31.511 28.6537C31.6851 28.3364 31.7722 27.9727 31.7722 27.5625C31.7722 27.1446 31.6832 26.777 31.5052 26.4597C31.331 26.1424 31.0892 25.8948 30.7797 25.7168C30.4701 25.5388 30.116 25.4479 29.7175 25.444C29.3692 25.444 29.0307 25.5156 28.7018 25.6588C28.3767 25.8019 28.1233 25.9973 27.9414 26.245L25.7068 25.8445L26.2698 19.576H33.5366V21.6307H28.3419L28.0343 24.6082H28.1039C28.3129 24.3141 28.6282 24.0704 29.05 23.8769C29.4718 23.6834 29.9439 23.5867 30.4662 23.5867C31.1821 23.5867 31.8205 23.755 32.3816 24.0916C32.9427 24.4283 33.3857 24.8907 33.7107 25.4788C34.0358 26.0631 34.1964 26.7364 34.1925 27.4987C34.1964 28.2996 34.0106 29.0116 33.6353 29.6346C33.2638 30.2537 32.7434 30.7412 32.074 31.0972C31.4084 31.4493 30.6345 31.6254 29.7523 31.6254Z" fill="white"/>
<defs>
<filter id="filter0_d_376_709" x="2.01485" y="5.11035" width="50.4435" height="49.2013" filterUnits="userSpaceOnUse" color-interpolation-filters="sRGB">
<feFlood flood-opacity="0" result="BackgroundImageFix"/>
<feColorMatrix in="SourceAlpha" type="matrix" values="0 0 0 0 0 0 0 0 0 0 0 0 0 0 0 0 0 0 127 0" result="hardAlpha"/>
<feOffset dx="1.41093" dy="2.82185"/>
<feGaussianBlur stdDeviation="1.41093"/>
<feComposite in2="hardAlpha" operator="out"/>
<feColorMatrix type="matrix" values="0 0 0 0 0 0 0 0 0 0 0 0 0 0 0 0 0 0 0.25 0"/>
<feBlend mode="normal" in2="BackgroundImageFix" result="effect1_dropShadow_376_709"/>
<feBlend mode="normal" in="SourceGraphic" in2="effect1_dropShadow_376_709" result="shape"/>
</filter>
<linearGradient id="paint0_linear_376_709" x1="25.8258" y1="49.5547" x2="25.8258" y2="2.3819" gradientUnits="userSpaceOnUse">
<stop stop-color="#3DE54E"/>
<stop offset="1" stop-color="#7540E6"/>
</linearGradient>
<linearGradient id="paint1_linear_376_709" x1="25.8258" y1="50.9629" x2="25.8258" y2="0.269682" gradientUnits="userSpaceOnUse">
<stop stop-color="#2A183D"/>
<stop offset="1" stop-color="#3DE54E"/>
</linearGradient>
</defs>
</svg>
