<svg width="53" height="55" viewBox="0 0 53 55" fill="none" xmlns="http://www.w3.org/2000/svg">
<g filter="url(#filter0_d_376_706)">
<path d="M31.5397 46.8116C28.1323 49.2872 23.5183 49.2872 20.1108 46.8116L7.43364 37.6011C4.02621 35.1254 2.60041 30.7373 3.90193 26.7316L8.74418 11.8287C10.0457 7.82299 13.7785 5.11094 17.9903 5.11094L33.6602 5.11094C37.872 5.11094 41.6048 7.82299 42.9064 11.8287L47.7486 26.7316C49.0501 30.7372 47.6243 35.1254 44.2169 37.6011L31.5397 46.8116Z" fill="url(#paint0_linear_376_706)"/>
<path d="M30.2957 45.0994C27.6301 47.0361 24.0205 47.0361 21.3548 45.0994L8.67763 35.8889C6.01196 33.9522 4.89655 30.5193 5.91474 27.3856L10.757 12.4827C11.7752 9.349 14.6954 7.22733 17.9903 7.22733L33.6602 7.22733C36.9551 7.22733 39.8754 9.34899 40.8935 12.4827L45.7358 27.3856C46.754 30.5193 45.6386 33.9522 42.9729 35.8889L30.2957 45.0994Z" stroke="url(#paint1_linear_376_706)" stroke-width="4.23278"/>
</g>
<path d="M22.5852 19.577V31.4639H20.072V21.9625H20.0023L17.2802 23.6689V21.4401L20.2229 19.577H22.5852ZM30.0711 31.7251C29.0727 31.7212 28.2137 31.4755 27.494 30.9879C26.7782 30.5004 26.2268 29.7942 25.8398 28.8694C25.4568 27.9446 25.2672 26.8322 25.271 25.532C25.271 24.2358 25.4626 23.1311 25.8456 22.2179C26.2326 21.3047 26.784 20.6101 27.4998 20.1342C28.2195 19.6544 29.0766 19.4145 30.0711 19.4145C31.0655 19.4145 31.9206 19.6544 32.6365 20.1342C33.3562 20.614 33.9095 21.3105 34.2965 22.2237C34.6834 23.133 34.8749 24.2358 34.8711 25.532C34.8711 26.836 34.6776 27.9504 34.2907 28.8752C33.9076 29.8 33.3581 30.5062 32.6423 30.9937C31.9264 31.4813 31.0694 31.7251 30.0711 31.7251ZM30.0711 29.6414C30.7521 29.6414 31.2957 29.2989 31.702 28.614C32.1083 27.9291 32.3095 26.9018 32.3057 25.532C32.3057 24.6305 32.2128 23.8798 32.0271 23.28C31.8452 22.6803 31.5859 22.2295 31.2493 21.9277C30.9165 21.6259 30.5238 21.4749 30.0711 21.4749C29.3939 21.4749 28.8522 21.8135 28.4459 22.4907C28.0396 23.1678 27.8345 24.1816 27.8307 25.532C27.8307 26.4452 27.9216 27.2075 28.1035 27.8189C28.2892 28.4264 28.5504 28.883 28.887 29.1886C29.2237 29.4905 29.6183 29.6414 30.0711 29.6414Z" fill="white"/>
<defs>
<filter id="filter0_d_376_706" x="2.01437" y="5.11084" width="50.4435" height="49.2013" filterUnits="userSpaceOnUse" color-interpolation-filters="sRGB">
<feFlood flood-opacity="0" result="BackgroundImageFix"/>
<feColorMatrix in="SourceAlpha" type="matrix" values="0 0 0 0 0 0 0 0 0 0 0 0 0 0 0 0 0 0 127 0" result="hardAlpha"/>
<feOffset dx="1.41093" dy="2.82185"/>
<feGaussianBlur stdDeviation="1.41093"/>
<feComposite in2="hardAlpha" operator="out"/>
<feColorMatrix type="matrix" values="0 0 0 0 0 0 0 0 0 0 0 0 0 0 0 0 0 0 0.25 0"/>
<feBlend mode="normal" in2="BackgroundImageFix" result="effect1_dropShadow_376_706"/>
<feBlend mode="normal" in="SourceGraphic" in2="effect1_dropShadow_376_706" result="shape"/>
</filter>
<linearGradient id="paint0_linear_376_706" x1="25.8253" y1="49.5552" x2="25.8253" y2="2.38239" gradientUnits="userSpaceOnUse">
<stop stop-color="#A648DF"/>
<stop offset="1" stop-color="#8439FF"/>
</linearGradient>
<linearGradient id="paint1_linear_376_706" x1="25.8253" y1="50.9634" x2="25.8253" y2="0.27017" gradientUnits="userSpaceOnUse">
<stop stop-color="#1C112E"/>
<stop offset="1" stop-color="#703DC3"/>
</linearGradient>
</defs>
</svg>
