<svg width="47" height="56" viewBox="0 0 47 56" fill="none" xmlns="http://www.w3.org/2000/svg">
<g filter="url(#filter0_d_376_694)">
<path d="M26.759 47.9522C24.1313 50.1692 20.2881 50.1692 17.6605 47.9522L4.87729 37.1667C2.76563 35.385 1.88838 32.5347 2.63281 29.874L7.91325 11.0013C8.76579 7.95421 11.5429 5.84748 14.707 5.84748L29.7125 5.84748C32.8766 5.84748 35.6537 7.9542 36.5062 11.0013L41.7866 29.874C42.5311 32.5347 41.6538 35.385 39.5422 37.1667L26.759 47.9522Z" fill="url(#paint0_linear_376_694)"/>
<path d="M25.3942 46.3346C23.5548 47.8866 20.8646 47.8866 19.0252 46.3346L6.24206 35.5491C4.76391 34.302 4.14983 32.3067 4.67093 30.4442L9.95136 11.5715C10.5481 9.43858 12.4921 7.96387 14.707 7.96387L29.7125 7.96387C31.9274 7.96387 33.8713 9.43858 34.4681 11.5715L39.7485 30.4442C40.2696 32.3067 39.6556 34.302 38.1774 35.5491L25.3942 46.3346Z" stroke="url(#paint1_linear_376_694)" stroke-width="4.23278"/>
</g>
<path d="M26.2307 20.3539V18.8989H17.5071V20.3539H15.083V21.5058C15.083 22.4758 15.3709 23.4092 15.8939 24.1312C16.2978 24.689 16.9292 25.074 17.4971 25.2592C17.6619 26.147 18.1092 26.991 19.0179 27.6791C19.6845 28.1841 20.486 28.5542 21.2038 28.7054V31.1453H18.9615V32.4791H24.7793V31.1453H22.537V28.7054C23.2549 28.5539 24.056 28.1841 24.723 27.6791C25.632 26.991 26.0789 26.147 26.2438 25.2592C26.8116 25.074 27.4431 24.689 27.847 24.1312C28.37 23.4092 28.6578 22.4758 28.6578 21.5058V20.3539H26.2307ZM16.9738 23.3489C16.6502 22.9039 16.4535 22.3061 16.4211 21.6877H17.5071V23.7299C17.3877 23.6953 17.1156 23.5444 16.9738 23.3489ZM26.7671 23.3489C26.6277 23.5492 26.4156 23.7302 26.2338 23.7302C26.2338 23.0512 26.2338 22.327 26.2323 21.6877H27.3201C27.2873 22.3061 27.0822 22.8972 26.7671 23.3489Z" fill="#F8F8F8"/>
<defs>
<filter id="filter0_d_376_694" x="0.960655" y="5.84766" width="45.32" height="49.4108" filterUnits="userSpaceOnUse" color-interpolation-filters="sRGB">
<feFlood flood-opacity="0" result="BackgroundImageFix"/>
<feColorMatrix in="SourceAlpha" type="matrix" values="0 0 0 0 0 0 0 0 0 0 0 0 0 0 0 0 0 0 127 0" result="hardAlpha"/>
<feOffset dx="1.41093" dy="2.82185"/>
<feGaussianBlur stdDeviation="1.41093"/>
<feComposite in2="hardAlpha" operator="out"/>
<feColorMatrix type="matrix" values="0 0 0 0 0 0 0 0 0 0 0 0 0 0 0 0 0 0 0.25 0"/>
<feBlend mode="normal" in2="BackgroundImageFix" result="effect1_dropShadow_376_694"/>
<feBlend mode="normal" in="SourceGraphic" in2="effect1_dropShadow_376_694" result="shape"/>
</filter>
<linearGradient id="paint0_linear_376_694" x1="22.2097" y1="50.3796" x2="22.2097" y2="3.11353" gradientUnits="userSpaceOnUse">
<stop stop-color="#944C12"/>
<stop offset="1" stop-color="#CC7F3F"/>
</linearGradient>
<linearGradient id="paint1_linear_376_694" x1="22.2097" y1="51.7905" x2="22.2097" y2="0.997145" gradientUnits="userSpaceOnUse">
<stop stop-color="#B2723C"/>
<stop offset="1" stop-color="#E2A16A"/>
</linearGradient>
</defs>
</svg>
