<svg width="47" height="56" viewBox="0 0 47 56" fill="none" xmlns="http://www.w3.org/2000/svg">
<g filter="url(#filter0_d_376_697)">
<path d="M27.3361 47.9522C24.7085 50.1692 20.8653 50.1692 18.2376 47.9522L5.45443 37.1667C3.34278 35.385 2.46553 32.5347 3.20996 29.874L8.49039 11.0013C9.34294 7.95421 12.12 5.84748 15.2841 5.84748L30.2896 5.84748C33.4537 5.84748 36.2308 7.9542 37.0834 11.0013L42.3638 29.874C43.1082 32.5347 42.231 35.385 40.1193 37.1667L27.3361 47.9522Z" fill="url(#paint0_linear_376_697)"/>
<path d="M25.9714 46.3346C24.132 47.8866 21.4418 47.8866 19.6024 46.3346L6.81921 35.5491C5.34105 34.302 4.72698 32.3067 5.24808 30.4442L10.5285 11.5715C11.1253 9.43858 13.0693 7.96387 15.2841 7.96387L30.2896 7.96387C32.5045 7.96387 34.4485 9.43858 35.0453 11.5715L40.3257 30.4442C40.8468 32.3067 40.2327 34.302 38.7545 35.5491L25.9714 46.3346Z" stroke="url(#paint1_linear_376_697)" stroke-width="4.23278"/>
</g>
<path d="M26.7991 20.3535V18.8984H18.0754V20.3535H15.6514V21.5053C15.6514 22.4754 15.9392 23.4087 16.4622 24.1307C16.8661 24.6885 17.4976 25.0735 18.0654 25.2587C18.2303 26.1466 18.6775 26.9905 19.5863 27.6786C20.2529 28.1836 21.0543 28.5537 21.7722 28.705V31.1448H19.5299V32.4786H25.3477V31.1448H23.1054V28.705C23.8232 28.5534 24.6244 28.1836 25.2913 27.6786C26.2003 26.9905 26.6473 26.1466 26.8121 25.2587C27.38 25.0735 28.0114 24.6885 28.4153 24.1307C28.9383 23.4087 29.2262 22.4754 29.2262 21.5053V20.3535H26.7991ZM17.5421 23.3484C17.2185 22.9034 17.0219 22.3056 16.9895 21.6872H18.0754V23.7294C17.9561 23.6948 17.684 23.5439 17.5421 23.3484ZM27.3354 23.3484C27.196 23.5487 26.9839 23.7297 26.8021 23.7297C26.8021 23.0507 26.8021 22.3265 26.8006 21.6872H27.8884C27.8557 22.3056 27.6506 22.8967 27.3354 23.3484Z" fill="#F8F8F8"/>
<defs>
<filter id="filter0_d_376_697" x="1.5378" y="5.84766" width="45.32" height="49.4108" filterUnits="userSpaceOnUse" color-interpolation-filters="sRGB">
<feFlood flood-opacity="0" result="BackgroundImageFix"/>
<feColorMatrix in="SourceAlpha" type="matrix" values="0 0 0 0 0 0 0 0 0 0 0 0 0 0 0 0 0 0 127 0" result="hardAlpha"/>
<feOffset dx="1.41093" dy="2.82185"/>
<feGaussianBlur stdDeviation="1.41093"/>
<feComposite in2="hardAlpha" operator="out"/>
<feColorMatrix type="matrix" values="0 0 0 0 0 0 0 0 0 0 0 0 0 0 0 0 0 0 0.25 0"/>
<feBlend mode="normal" in2="BackgroundImageFix" result="effect1_dropShadow_376_697"/>
<feBlend mode="normal" in="SourceGraphic" in2="effect1_dropShadow_376_697" result="shape"/>
</filter>
<linearGradient id="paint0_linear_376_697" x1="22.7869" y1="50.3796" x2="22.7869" y2="3.11353" gradientUnits="userSpaceOnUse">
<stop stop-color="#647296"/>
<stop offset="1" stop-color="#839EBF"/>
</linearGradient>
<linearGradient id="paint1_linear_376_697" x1="22.7869" y1="51.7905" x2="22.7869" y2="0.997145" gradientUnits="userSpaceOnUse">
<stop stop-color="#8894B1"/>
<stop offset="1" stop-color="#A4BED9"/>
</linearGradient>
</defs>
</svg>
